<mxfile host="app.diagrams.net" agent="Mozilla/5.0 (X11; Linux x86_64; rv:142.0) Gecko/20100101 Firefox/142.0" version="28.1.1" pages="3">
  <diagram name="full" id="xw-deUw94Mbxn5bhTyAY">
    <mxGraphModel dx="1426" dy="765" grid="1" gridSize="10" guides="1" tooltips="1" connect="1" arrows="1" fold="1" page="1" pageScale="1" pageWidth="850" pageHeight="1100" math="0" shadow="0">
      <root>
        <mxCell id="0" />
        <mxCell id="1" parent="0" />
        <mxCell id="N1nAg5IsWIKCWhD5TEbV-29" style="edgeStyle=orthogonalEdgeStyle;rounded=0;orthogonalLoop=1;jettySize=auto;html=1;entryX=0;entryY=0.5;entryDx=0;entryDy=0;" parent="1" source="N1nAg5IsWIKCWhD5TEbV-2" target="N1nAg5IsWIKCWhD5TEbV-3" edge="1">
          <mxGeometry relative="1" as="geometry" />
        </mxCell>
        <mxCell id="N1nAg5IsWIKCWhD5TEbV-30" value="Lexing" style="edgeLabel;html=1;align=center;verticalAlign=middle;resizable=0;points=[];" parent="N1nAg5IsWIKCWhD5TEbV-29" vertex="1" connectable="0">
          <mxGeometry x="-0.1959" y="-1" relative="1" as="geometry">
            <mxPoint x="4" y="7" as="offset" />
          </mxGeometry>
        </mxCell>
        <mxCell id="N1nAg5IsWIKCWhD5TEbV-2" value="SELECT * { ?s ?p [] }" style="rounded=1;whiteSpace=wrap;html=1;strokeColor=none;fillColor=#f8cecc;" parent="1" vertex="1">
          <mxGeometry x="200" y="360" width="130" height="50" as="geometry" />
        </mxCell>
        <mxCell id="N1nAg5IsWIKCWhD5TEbV-31" style="edgeStyle=orthogonalEdgeStyle;rounded=0;orthogonalLoop=1;jettySize=auto;html=1;entryX=0;entryY=0.5;entryDx=0;entryDy=0;" parent="1" source="N1nAg5IsWIKCWhD5TEbV-3" target="N1nAg5IsWIKCWhD5TEbV-23" edge="1">
          <mxGeometry relative="1" as="geometry" />
        </mxCell>
        <mxCell id="N1nAg5IsWIKCWhD5TEbV-32" value="Parsing" style="edgeLabel;html=1;align=center;verticalAlign=middle;resizable=0;points=[];" parent="N1nAg5IsWIKCWhD5TEbV-31" vertex="1" connectable="0">
          <mxGeometry x="-0.2776" y="-3" relative="1" as="geometry">
            <mxPoint x="6" y="6" as="offset" />
          </mxGeometry>
        </mxCell>
        <mxCell id="N1nAg5IsWIKCWhD5TEbV-3" value="Select Wildcard LCurly Var Var Blank RCurly" style="rounded=1;whiteSpace=wrap;html=1;strokeColor=none;fillColor=#fff2cc;" parent="1" vertex="1">
          <mxGeometry x="400" y="360" width="130" height="50" as="geometry" />
        </mxCell>
        <mxCell id="N1nAg5IsWIKCWhD5TEbV-8" value="SPARQL Query" style="text;html=1;align=center;verticalAlign=middle;whiteSpace=wrap;rounded=0;" parent="1" vertex="1">
          <mxGeometry x="200" y="410" width="130" height="20" as="geometry" />
        </mxCell>
        <mxCell id="N1nAg5IsWIKCWhD5TEbV-9" value="Tokens" style="text;html=1;align=center;verticalAlign=middle;whiteSpace=wrap;rounded=0;" parent="1" vertex="1">
          <mxGeometry x="400" y="410" width="130" height="20" as="geometry" />
        </mxCell>
        <mxCell id="N1nAg5IsWIKCWhD5TEbV-51" style="edgeStyle=orthogonalEdgeStyle;rounded=0;orthogonalLoop=1;jettySize=auto;html=1;exitX=0.028;exitY=0.948;exitDx=0;exitDy=0;entryX=1;entryY=0.5;entryDx=0;entryDy=0;exitPerimeter=0;curved=1;" parent="1" source="N1nAg5IsWIKCWhD5TEbV-23" target="N1nAg5IsWIKCWhD5TEbV-39" edge="1">
          <mxGeometry relative="1" as="geometry" />
        </mxCell>
        <mxCell id="N1nAg5IsWIKCWhD5TEbV-52" value="Transformation&lt;br&gt;&lt;div&gt;(only when you&lt;/div&gt;&lt;div&gt;like math)&lt;/div&gt;" style="edgeLabel;html=1;align=center;verticalAlign=middle;resizable=0;points=[];" parent="N1nAg5IsWIKCWhD5TEbV-51" vertex="1" connectable="0">
          <mxGeometry x="0.1092" y="1" relative="1" as="geometry">
            <mxPoint x="38" y="5" as="offset" />
          </mxGeometry>
        </mxCell>
        <mxCell id="N1nAg5IsWIKCWhD5TEbV-23" value="" style="rounded=1;whiteSpace=wrap;html=1;fillColor=#dae8fc;strokeColor=none;" parent="1" vertex="1">
          <mxGeometry x="600" y="312.5" width="170" height="145" as="geometry" />
        </mxCell>
        <mxCell id="N1nAg5IsWIKCWhD5TEbV-24" value="SelectQuery" style="text;html=1;align=center;verticalAlign=middle;whiteSpace=wrap;rounded=0;" parent="1" vertex="1">
          <mxGeometry x="600" y="312.5" width="170" height="17.5" as="geometry" />
        </mxCell>
        <mxCell id="N1nAg5IsWIKCWhD5TEbV-25" value="&lt;div&gt;Variables: wildcard&lt;/div&gt;where:" style="text;html=1;align=left;verticalAlign=middle;whiteSpace=wrap;rounded=0;" parent="1" vertex="1">
          <mxGeometry x="601" y="330" width="170" height="30" as="geometry" />
        </mxCell>
        <mxCell id="N1nAg5IsWIKCWhD5TEbV-26" value="" style="rounded=1;whiteSpace=wrap;html=1;fillColor=#d5e8d4;strokeColor=none;" parent="1" vertex="1">
          <mxGeometry x="605" y="355" width="160" height="95" as="geometry" />
        </mxCell>
        <mxCell id="N1nAg5IsWIKCWhD5TEbV-27" value="PatternBgp (list)" style="text;html=1;align=center;verticalAlign=middle;whiteSpace=wrap;rounded=0;" parent="1" vertex="1">
          <mxGeometry x="605" y="355" width="160" height="22.5" as="geometry" />
        </mxCell>
        <mxCell id="N1nAg5IsWIKCWhD5TEbV-39" value="" style="rounded=1;whiteSpace=wrap;html=1;fillColor=#dae8fc;strokeColor=none;" parent="1" vertex="1">
          <mxGeometry x="380" y="457.5" width="170" height="140" as="geometry" />
        </mxCell>
        <mxCell id="N1nAg5IsWIKCWhD5TEbV-40" value="Project" style="text;html=1;align=center;verticalAlign=middle;whiteSpace=wrap;rounded=0;" parent="1" vertex="1">
          <mxGeometry x="380" y="457.5" width="170" height="30" as="geometry" />
        </mxCell>
        <mxCell id="N1nAg5IsWIKCWhD5TEbV-41" value="Var s ; Var p" style="text;html=1;align=left;verticalAlign=middle;whiteSpace=wrap;rounded=0;" parent="1" vertex="1">
          <mxGeometry x="380" y="487.5" width="170" height="30" as="geometry" />
        </mxCell>
        <mxCell id="N1nAg5IsWIKCWhD5TEbV-42" value="" style="rounded=1;whiteSpace=wrap;html=1;fillColor=#d5e8d4;strokeColor=none;" parent="1" vertex="1">
          <mxGeometry x="385" y="512.5" width="160" height="75" as="geometry" />
        </mxCell>
        <mxCell id="N1nAg5IsWIKCWhD5TEbV-43" value="BGP" style="text;html=1;align=center;verticalAlign=middle;whiteSpace=wrap;rounded=0;" parent="1" vertex="1">
          <mxGeometry x="385" y="512.5" width="160" height="30" as="geometry" />
        </mxCell>
        <mxCell id="N1nAg5IsWIKCWhD5TEbV-44" value="&lt;div&gt;Var s&lt;/div&gt;&lt;div&gt;Var p&lt;/div&gt;Blank 1" style="text;html=1;align=left;verticalAlign=middle;whiteSpace=wrap;rounded=0;" parent="1" vertex="1">
          <mxGeometry x="385" y="527.5" width="155" height="50" as="geometry" />
        </mxCell>
        <mxCell id="N1nAg5IsWIKCWhD5TEbV-46" value="" style="rounded=1;whiteSpace=wrap;html=1;strokeColor=none;" parent="1" vertex="1">
          <mxGeometry x="620" y="372.5" width="130" height="70" as="geometry" />
        </mxCell>
        <mxCell id="N1nAg5IsWIKCWhD5TEbV-47" value="Triple" style="text;html=1;align=center;verticalAlign=middle;whiteSpace=wrap;rounded=0;" parent="1" vertex="1">
          <mxGeometry x="620" y="376.5" width="130" height="12.5" as="geometry" />
        </mxCell>
        <mxCell id="N1nAg5IsWIKCWhD5TEbV-28" value="&lt;div&gt;Subject: Var s&amp;nbsp;&lt;/div&gt;&lt;div&gt;Object: Var p&lt;/div&gt;Predicate: Blank 1" style="text;html=1;align=left;verticalAlign=middle;whiteSpace=wrap;rounded=0;" parent="1" vertex="1">
          <mxGeometry x="621" y="392.5" width="114" height="42.5" as="geometry" />
        </mxCell>
        <mxCell id="N1nAg5IsWIKCWhD5TEbV-48" value="AST" style="text;html=1;align=center;verticalAlign=middle;whiteSpace=wrap;rounded=0;" parent="1" vertex="1">
          <mxGeometry x="601" y="457.5" width="169" height="22.5" as="geometry" />
        </mxCell>
        <mxCell id="N1nAg5IsWIKCWhD5TEbV-49" value="Algebra" style="text;html=1;align=center;verticalAlign=middle;whiteSpace=wrap;rounded=0;" parent="1" vertex="1">
          <mxGeometry x="380" y="597.5" width="170" height="22.5" as="geometry" />
        </mxCell>
      </root>
    </mxGraphModel>
  </diagram>
  <diagram name="flat" id="9lu97Q4doFGUZIZxcehw">
    <mxGraphModel dx="1426" dy="765" grid="1" gridSize="10" guides="1" tooltips="1" connect="1" arrows="1" fold="1" page="1" pageScale="1" pageWidth="850" pageHeight="1100" math="0" shadow="0">
      <root>
        <mxCell id="YFJSG78VTgbqw0E2_xot-0" />
        <mxCell id="YFJSG78VTgbqw0E2_xot-1" parent="YFJSG78VTgbqw0E2_xot-0" />
        <mxCell id="YFJSG78VTgbqw0E2_xot-2" style="edgeStyle=orthogonalEdgeStyle;rounded=0;orthogonalLoop=1;jettySize=auto;html=1;entryX=0;entryY=0.5;entryDx=0;entryDy=0;" parent="YFJSG78VTgbqw0E2_xot-1" source="YFJSG78VTgbqw0E2_xot-4" target="YFJSG78VTgbqw0E2_xot-7" edge="1">
          <mxGeometry relative="1" as="geometry" />
        </mxCell>
        <mxCell id="YFJSG78VTgbqw0E2_xot-3" value="Lexing" style="edgeLabel;html=1;align=center;verticalAlign=middle;resizable=0;points=[];" parent="YFJSG78VTgbqw0E2_xot-2" vertex="1" connectable="0">
          <mxGeometry x="-0.1959" y="-1" relative="1" as="geometry">
            <mxPoint x="4" y="7" as="offset" />
          </mxGeometry>
        </mxCell>
        <mxCell id="YFJSG78VTgbqw0E2_xot-4" value="SELECT * { ?s ?p [] }" style="rounded=1;whiteSpace=wrap;html=1;strokeColor=none;fillColor=#f8cecc;" parent="YFJSG78VTgbqw0E2_xot-1" vertex="1">
          <mxGeometry x="200" y="360" width="130" height="50" as="geometry" />
        </mxCell>
        <mxCell id="YFJSG78VTgbqw0E2_xot-5" style="edgeStyle=orthogonalEdgeStyle;rounded=0;orthogonalLoop=1;jettySize=auto;html=1;entryX=0;entryY=0.5;entryDx=0;entryDy=0;" parent="YFJSG78VTgbqw0E2_xot-1" source="YFJSG78VTgbqw0E2_xot-7" target="YFJSG78VTgbqw0E2_xot-12" edge="1">
          <mxGeometry relative="1" as="geometry" />
        </mxCell>
        <mxCell id="YFJSG78VTgbqw0E2_xot-6" value="Parsing" style="edgeLabel;html=1;align=center;verticalAlign=middle;resizable=0;points=[];" parent="YFJSG78VTgbqw0E2_xot-5" vertex="1" connectable="0">
          <mxGeometry x="-0.2776" y="-3" relative="1" as="geometry">
            <mxPoint x="6" y="6" as="offset" />
          </mxGeometry>
        </mxCell>
        <mxCell id="YFJSG78VTgbqw0E2_xot-7" value="Select Wildcard LCurly Var Var Blank RCurly" style="rounded=1;whiteSpace=wrap;html=1;strokeColor=none;fillColor=#fff2cc;" parent="YFJSG78VTgbqw0E2_xot-1" vertex="1">
          <mxGeometry x="400" y="360" width="130" height="50" as="geometry" />
        </mxCell>
        <mxCell id="YFJSG78VTgbqw0E2_xot-8" value="SPARQL Query" style="text;html=1;align=center;verticalAlign=middle;whiteSpace=wrap;rounded=0;" parent="YFJSG78VTgbqw0E2_xot-1" vertex="1">
          <mxGeometry x="200" y="410" width="130" height="20" as="geometry" />
        </mxCell>
        <mxCell id="YFJSG78VTgbqw0E2_xot-9" value="Tokens" style="text;html=1;align=center;verticalAlign=middle;whiteSpace=wrap;rounded=0;" parent="YFJSG78VTgbqw0E2_xot-1" vertex="1">
          <mxGeometry x="400" y="410" width="130" height="20" as="geometry" />
        </mxCell>
        <mxCell id="YFJSG78VTgbqw0E2_xot-12" value="" style="rounded=1;whiteSpace=wrap;html=1;fillColor=#dae8fc;strokeColor=none;" parent="YFJSG78VTgbqw0E2_xot-1" vertex="1">
          <mxGeometry x="600" y="312.5" width="170" height="145" as="geometry" />
        </mxCell>
        <mxCell id="YFJSG78VTgbqw0E2_xot-13" value="SelectQuery" style="text;html=1;align=center;verticalAlign=middle;whiteSpace=wrap;rounded=0;" parent="YFJSG78VTgbqw0E2_xot-1" vertex="1">
          <mxGeometry x="600" y="312.5" width="170" height="17.5" as="geometry" />
        </mxCell>
        <mxCell id="YFJSG78VTgbqw0E2_xot-14" value="&lt;div&gt;Variables: wildcard&lt;/div&gt;where:" style="text;html=1;align=left;verticalAlign=middle;whiteSpace=wrap;rounded=0;" parent="YFJSG78VTgbqw0E2_xot-1" vertex="1">
          <mxGeometry x="601" y="330" width="170" height="30" as="geometry" />
        </mxCell>
        <mxCell id="YFJSG78VTgbqw0E2_xot-15" value="" style="rounded=1;whiteSpace=wrap;html=1;fillColor=#d5e8d4;strokeColor=none;" parent="YFJSG78VTgbqw0E2_xot-1" vertex="1">
          <mxGeometry x="605" y="355" width="160" height="95" as="geometry" />
        </mxCell>
        <mxCell id="YFJSG78VTgbqw0E2_xot-16" value="PatternBgp (list)" style="text;html=1;align=center;verticalAlign=middle;whiteSpace=wrap;rounded=0;" parent="YFJSG78VTgbqw0E2_xot-1" vertex="1">
          <mxGeometry x="605" y="355" width="160" height="22.5" as="geometry" />
        </mxCell>
        <mxCell id="YFJSG78VTgbqw0E2_xot-23" value="" style="rounded=1;whiteSpace=wrap;html=1;strokeColor=none;" parent="YFJSG78VTgbqw0E2_xot-1" vertex="1">
          <mxGeometry x="620" y="372.5" width="130" height="70" as="geometry" />
        </mxCell>
        <mxCell id="YFJSG78VTgbqw0E2_xot-24" value="Triple" style="text;html=1;align=center;verticalAlign=middle;whiteSpace=wrap;rounded=0;" parent="YFJSG78VTgbqw0E2_xot-1" vertex="1">
          <mxGeometry x="620" y="376.5" width="130" height="12.5" as="geometry" />
        </mxCell>
        <mxCell id="YFJSG78VTgbqw0E2_xot-25" value="&lt;div&gt;Subject: Var s&amp;nbsp;&lt;/div&gt;&lt;div&gt;Object: Var p&lt;/div&gt;Predicate: Blank 1" style="text;html=1;align=left;verticalAlign=middle;whiteSpace=wrap;rounded=0;" parent="YFJSG78VTgbqw0E2_xot-1" vertex="1">
          <mxGeometry x="621" y="392.5" width="114" height="42.5" as="geometry" />
        </mxCell>
        <mxCell id="YFJSG78VTgbqw0E2_xot-26" value="AST" style="text;html=1;align=center;verticalAlign=middle;whiteSpace=wrap;rounded=0;" parent="YFJSG78VTgbqw0E2_xot-1" vertex="1">
          <mxGeometry x="601" y="457.5" width="169" height="22.5" as="geometry" />
        </mxCell>
      </root>
    </mxGraphModel>
  </diagram>
  <diagram name="short" id="9aKjbQ56WM8DVEDU8nJz">
    <mxGraphModel dx="570" dy="306" grid="1" gridSize="10" guides="1" tooltips="1" connect="1" arrows="1" fold="1" page="1" pageScale="1" pageWidth="850" pageHeight="1100" math="0" shadow="0">
      <root>
        <mxCell id="0uwOEBNtEkltSSNn3gQM-0" />
        <mxCell id="0uwOEBNtEkltSSNn3gQM-1" parent="0uwOEBNtEkltSSNn3gQM-0" />
        <mxCell id="0uwOEBNtEkltSSNn3gQM-2" style="edgeStyle=orthogonalEdgeStyle;rounded=0;orthogonalLoop=1;jettySize=auto;html=1;entryX=0;entryY=0.5;entryDx=0;entryDy=0;" edge="1" parent="0uwOEBNtEkltSSNn3gQM-1" source="0uwOEBNtEkltSSNn3gQM-4" target="0uwOEBNtEkltSSNn3gQM-7">
          <mxGeometry relative="1" as="geometry" />
        </mxCell>
        <mxCell id="0uwOEBNtEkltSSNn3gQM-3" value="Lexing" style="edgeLabel;html=1;align=center;verticalAlign=middle;resizable=0;points=[];" vertex="1" connectable="0" parent="0uwOEBNtEkltSSNn3gQM-2">
          <mxGeometry x="-0.1959" y="-1" relative="1" as="geometry">
            <mxPoint x="4" y="7" as="offset" />
          </mxGeometry>
        </mxCell>
        <mxCell id="0uwOEBNtEkltSSNn3gQM-4" value="SELECT * { ?s ?p [] }" style="rounded=1;whiteSpace=wrap;html=1;strokeColor=none;fillColor=#f8cecc;" vertex="1" parent="0uwOEBNtEkltSSNn3gQM-1">
          <mxGeometry x="200" y="360" width="130" height="50" as="geometry" />
        </mxCell>
        <mxCell id="0uwOEBNtEkltSSNn3gQM-7" value="Select Wildcard LCurly Var Var Blank RCurly" style="rounded=1;whiteSpace=wrap;html=1;strokeColor=none;fillColor=#fff2cc;" vertex="1" parent="0uwOEBNtEkltSSNn3gQM-1">
          <mxGeometry x="400" y="360" width="130" height="50" as="geometry" />
        </mxCell>
        <mxCell id="0uwOEBNtEkltSSNn3gQM-8" value="SPARQL Query" style="text;html=1;align=center;verticalAlign=middle;whiteSpace=wrap;rounded=0;" vertex="1" parent="0uwOEBNtEkltSSNn3gQM-1">
          <mxGeometry x="200" y="410" width="130" height="20" as="geometry" />
        </mxCell>
        <mxCell id="0uwOEBNtEkltSSNn3gQM-9" value="Tokens" style="text;html=1;align=center;verticalAlign=middle;whiteSpace=wrap;rounded=0;" vertex="1" parent="0uwOEBNtEkltSSNn3gQM-1">
          <mxGeometry x="400" y="410" width="130" height="20" as="geometry" />
        </mxCell>
      </root>
    </mxGraphModel>
  </diagram>
</mxfile>
